# xmcd
# 
# Track frame offsets:
#     150
#     12501
#     21742
#     31384
#     42318
#     54043
#     83653
#     110497
#     113427
#     127314
#     147016
#     206408
#     223698
#     245257
#     261892
#     277067
# 
# Disc length: 3740
# 
# Revision: 2
# Processed by: cddbd v1.5.2PL0 Copyright (c) Steve Scherf et al.
# Submitted via: fre:ac v1.0.31
# 
DISCID=e60e9a10
DTITLE=Michael Bloomfield - From His Head To His Heart To His Hands Disc 1
DYEAR=2014
DGENRE=Blues
TTITLE0=I'm a Country Boy\\\\
TTITLE1=Judge, Judge
TTITLE2=Hammond's Rag
TTITLE3=I've Got You in the Palm of My Hand
TTITLE4=I've Got My Mojo Workin'
TTITLE5=Like a Rolling Stone (instrumental)
TTITLE6=Tombstone Blues (Alternate Chambers Brothers version)
TTITLE7=Michael Speaks About Paul Butterfield
TTITLE8=Born in Chicago
TTITLE9=Blues with a Feeling
TTITLE10=East-West
TTITLE11=Killing Floor
TTITLE12=Texas
TTITLE13=Susie's Shuffle (Live Jam)
TTITLE14=Just a Little Something (Live)
TTITLE15=Easy Rider
EXTD=
EXTT0=
EXTT1=
EXTT2=
EXTT3=
EXTT4=
EXTT5=
EXTT6=
EXTT7=
EXTT8=
EXTT9=
EXTT10=
EXTT11=
EXTT12=
EXTT13=
EXTT14=
EXTT15=
PLAYORDER=
